# This file uses centimeters as units for non-parametric coordinates.

mtllib HexagonBase.mtl
g default
v 2.500001 -0.050000 -4.330127
v -2.499999 -0.050000 -4.330128
v -5.000000 -0.050000 -0.000001
v -2.500001 -0.050000 4.330127
v 2.500000 -0.050000 4.330127
v 5.000000 -0.050000 0.000000
v 2.378608 0.113576 -4.119977
v -2.378608 0.113576 -4.119977
v -4.757215 0.113576 -0.000001
v -2.378608 0.113576 4.119976
v 2.378608 0.113576 4.119976
v 4.757215 0.113576 0.000000
v 0.000000 -0.050000 0.000000
v 0.000000 0.050000 0.000000
v 2.500001 0.039771 -4.330127
v -2.499999 0.039771 -4.330128
v -5.000000 0.039771 -0.000001
v -2.500001 0.039771 4.330127
v 2.500000 0.039771 4.330127
v 5.000000 0.039771 0.000000
vt 0.578125 0.020934
vt 0.421875 0.020934
vt 0.343750 0.156250
vt 0.421875 0.291566
vt 0.578125 0.291566
vt 0.656250 0.156250
vt 0.375000 0.312500
vt 0.416667 0.312500
vt 0.458333 0.312500
vt 0.500000 0.312500
vt 0.541667 0.312500
vt 0.583333 0.312500
vt 0.625000 0.312500
vt 0.375000 0.688440
vt 0.416667 0.688440
vt 0.458333 0.688440
vt 0.500000 0.688440
vt 0.541667 0.688440
vt 0.583333 0.688440
vt 0.625000 0.688440
vt 0.578125 0.708434
vt 0.421875 0.708434
vt 0.343750 0.843750
vt 0.421875 0.979066
vt 0.578125 0.979066
vt 0.656250 0.843750
vt 0.500000 0.150000
vt 0.500000 0.837500
vt 0.625000 0.649983
vt 0.375000 0.649983
vt 0.416667 0.649983
vt 0.458333 0.649983
vt 0.500000 0.649983
vt 0.541667 0.649983
vt 0.583333 0.649983
vn 0.000000 0.749475 -0.662033
vn 0.000000 0.749475 -0.662032
vn 0.000000 0.943503 -0.331364
vn 0.000000 0.943503 -0.331364
vn -0.573179 0.749636 -0.330924
vn -0.573207 0.749608 -0.330940
vn -0.286873 0.943543 -0.165624
vn -0.286873 0.943543 -0.165624
vn -0.573206 0.749609 0.330939
vn -0.573178 0.749638 0.330923
vn -0.286872 0.943543 0.165623
vn -0.286872 0.943543 0.165623
vn -0.000000 0.749476 0.662032
vn -0.000000 0.749476 0.662031
vn -0.000000 0.943503 0.331363
vn -0.000000 0.943503 0.331363
vn 0.573179 0.749637 0.330923
vn 0.573207 0.749609 0.330939
vn 0.286872 0.943543 0.165624
vn 0.286872 0.943543 0.165624
vn 0.573206 0.749609 -0.330939
vn 0.573178 0.749638 -0.330923
vn 0.286872 0.943543 -0.165623
vn 0.286872 0.943543 -0.165623
vn 0.000000 -1.000000 0.000000
vn 0.000000 -1.000000 0.000000
vn 0.000000 -1.000000 0.000000
vn 0.000000 -1.000000 -0.000000
vn 0.000000 -1.000000 -0.000000
vn 0.000000 -1.000000 -0.000000
vn 0.000000 -1.000000 0.000000
vn -0.006681 0.999911 0.011572
vn 0.006681 0.999911 0.011572
vn 0.000000 1.000000 -0.000000
vn 0.013363 0.999911 0.000000
vn 0.006681 0.999911 -0.011572
vn -0.006681 0.999911 -0.011572
vn -0.013363 0.999911 0.000000
vn 0.000000 0.000000 -1.000000
vn 0.000000 0.000000 -1.000000
vn -0.866025 0.000000 -0.500000
vn -0.866025 0.000000 -0.500000
vn -0.866025 0.000000 0.500000
vn -0.866025 0.000000 0.500000
vn 0.000000 0.000000 1.000000
vn 0.000000 0.000000 1.000000
vn 0.866025 0.000000 0.500000
vn 0.866025 0.000000 0.500000
vn 0.866025 0.000000 -0.500000
vn 0.866025 0.000000 -0.500000
s 1
g Hexagon
usemtl initialShadingGroup
f 15/30/1 16/31/2 8/15/3 7/14/4
s 2
f 16/31/5 17/32/6 9/16/7 8/15/8
s 3
f 17/32/9 18/33/10 10/17/11 9/16/12
s 4
f 18/33/13 19/34/14 11/18/15 10/17/16
s 5
f 19/34/17 20/35/18 12/19/19 11/18/20
s 6
f 20/35/21 15/29/22 7/20/23 12/19/24
s 7
f 2/2/25 1/1/26 13/27/27
f 3/3/28 2/2/25 13/27/27
f 4/4/29 3/3/28 13/27/27
f 5/5/30 4/4/29 13/27/27
f 6/6/31 5/5/30 13/27/27
f 1/1/26 6/6/31 13/27/27
s 8
f 7/25/32 8/24/33 14/28/34
f 8/24/33 9/23/35 14/28/34
f 9/23/35 10/22/36 14/28/34
f 10/22/36 11/21/37 14/28/34
f 11/21/37 12/26/38 14/28/34
f 12/26/38 7/25/32 14/28/34
s 1
f 1/7/39 2/8/40 16/31/2 15/30/1
s 2
f 2/8/41 3/9/42 17/32/6 16/31/5
s 3
f 3/9/43 4/10/44 18/33/10 17/32/9
s 4
f 4/10/45 5/11/46 19/34/14 18/33/13
s 5
f 5/11/47 6/12/48 20/35/18 19/34/17
s 6
f 6/12/49 1/13/50 15/29/22 20/35/21
