# This file uses centimeters as units for non-parametric coordinates.

mtllib Desert.mtl
g default
v 2.376260 -0.879200 -4.115800
v -2.376260 -0.879200 -4.115800
v -4.752520 -0.879200 0.000000
v -2.376260 -0.879200 4.115800
v 2.376260 -0.879200 4.115800
v 4.752520 -0.879200 0.000000
v 0.000000 0.796700 0.000000
v 2.378360 0.296194 -4.119550
v 2.278230 0.467404 -3.946120
v -2.378360 0.296194 -4.119550
v -2.278230 0.467404 -3.946120
v -4.756730 0.685740 0.000000
v -4.556470 0.856950 0.000000
v -2.378360 0.685740 4.119550
v -2.278230 0.856950 3.946120
v 2.378360 0.685740 4.119550
v 2.278230 0.856950 3.946120
v 4.556470 0.856950 0.000000
v 4.756730 0.685740 0.000000
vt 0.135390 0.864540
vt 0.633410 0.998040
vt 0.998040 0.633490
vt 0.864660 0.135440
vt 0.366630 0.001950
vt 0.002000 0.366490
vt 0.500020 0.499990
vt 0.145820 0.854010
vt 0.161880 0.837950
vt 0.629500 0.983750
vt 0.623620 0.961810
vt 0.983700 0.629730
vt 0.961770 0.623850
vt 0.854220 0.145970
vt 0.838160 0.162030
vt 0.370540 0.016240
vt 0.376420 0.038180
vt 0.038270 0.376130
vt 0.016340 0.370250
vn 0.577630 0.710391 -0.402106
vn 0.577630 0.710391 -0.402106
vn 0.577630 0.710391 -0.402106
vn 0.577630 0.710391 -0.402106
vn 0.000000 0.711647 -0.702537
vn 0.000000 0.711647 -0.702537
vn 0.000000 0.711647 -0.702537
vn 0.000000 0.711647 -0.702537
vn -0.577630 0.710391 -0.402106
vn -0.577630 0.710391 -0.402106
vn -0.577630 0.710391 -0.402106
vn -0.577630 0.710391 -0.402106
vn -0.608418 0.711648 0.351262
vn -0.608418 0.711648 0.351262
vn -0.608418 0.711648 0.351262
vn -0.608418 0.711648 0.351262
vn 0.000000 0.711647 0.702537
vn 0.000000 0.711647 0.702537
vn 0.000000 0.711647 0.702537
vn 0.000000 0.711647 0.702537
vn 0.608418 0.711648 0.351262
vn 0.608418 0.711648 0.351262
vn 0.608418 0.711648 0.351262
vn 0.608418 0.711648 0.351262
vn 0.000000 -0.003191 -0.999995
vn 0.000000 -0.003191 -0.999995
vn 0.000000 -0.003191 -0.999995
vn 0.000000 -0.003191 -0.999995
vn -0.866080 -0.002678 -0.499899
vn -0.866080 -0.002678 -0.499899
vn -0.866080 -0.002678 -0.499899
vn -0.866080 -0.002678 -0.499899
vn -0.866025 -0.002345 0.499995
vn -0.866025 -0.002345 0.499995
vn -0.866025 -0.002345 0.499995
vn -0.866025 -0.002345 0.499995
vn 0.000000 -0.002396 0.999997
vn 0.000000 -0.002396 0.999997
vn 0.000000 -0.002396 0.999997
vn 0.000000 -0.002396 0.999997
vn 0.866025 -0.002345 0.499995
vn 0.866025 -0.002345 0.499995
vn 0.866025 -0.002345 0.499995
vn 0.866025 -0.002345 0.499995
vn 0.866080 -0.002678 -0.499899
vn 0.866080 -0.002678 -0.499899
vn 0.866080 -0.002678 -0.499899
vn 0.866080 -0.002678 -0.499899
vn 0.000000 0.998788 -0.049222
vn 0.006584 0.996193 -0.086932
vn 0.013206 0.998701 -0.049209
vn 0.006611 0.999913 -0.011450
vn -0.006611 0.999913 -0.011450
vn -0.013206 0.998701 -0.049209
vn -0.006584 0.996193 -0.086932
s off
g BaseMesh2
usemtl lambert3SG
f 8/8/1 9/9/2 18/18/3 19/19/4
f 9/9/5 8/8/6 10/10/7 11/11/8
f 11/11/9 10/10/10 12/12/11 13/13/12
f 13/13/13 12/12/14 14/14/15 15/15/16
f 15/15/17 14/14/18 16/16/19 17/17/20
f 17/17/21 16/16/22 19/19/23 18/18/24
f 10/10/25 8/8/26 1/1/27 2/2/28
f 12/12/29 10/10/30 2/2/31 3/3/32
f 14/14/33 12/12/34 3/3/35 4/4/36
f 16/16/37 14/14/38 4/4/39 5/5/40
f 19/19/41 16/16/42 5/5/43 6/6/44
f 8/8/45 19/19/46 6/6/47 1/1/48
s 1
f 7/7/49 11/11/50 13/13/51
f 7/7/49 13/13/51 15/15/52
f 7/7/49 15/15/52 17/17/53
f 7/7/49 17/17/53 18/18/54
f 7/7/49 9/9/55 11/11/50
f 7/7/49 18/18/54 9/9/55
