# This file uses centimeters as units for non-parametric coordinates.

g default
v -1.098004 0.182794 0.362941
v -0.934018 0.182794 0.684781
v -0.678604 0.182794 0.940195
v -0.356763 0.182794 1.104181
v -0.000000 0.182794 1.160687
v 0.356763 0.182794 1.104181
v 0.678603 0.182794 0.940195
v 0.934017 0.182794 0.684781
v 1.098003 0.182794 0.362941
v 1.154508 0.182794 0.006178
v -1.154509 0.182794 0.006178
v -1.230566 0.111774 0.406013
v -1.046782 0.111774 0.766709
v -0.760532 0.111774 1.052959
v -0.399835 0.111774 1.236743
v -0.000000 0.111774 1.300071
v 0.399835 0.111774 1.236743
v 0.760531 0.111774 1.052959
v 1.046781 0.111774 0.766709
v 1.230565 0.111774 0.406013
v 1.293893 0.111774 0.006178
v -1.293893 0.111774 0.006178
v -1.335768 0.001158 0.440195
v -1.136272 0.001158 0.831728
v -0.825550 0.001158 1.142450
v -0.434018 0.001158 1.341945
v -0.000000 0.001158 1.410687
v 0.434017 0.001158 1.341945
v 0.825549 0.001158 1.142449
v 1.136271 0.001158 0.831727
v 1.335767 0.001158 0.440195
v 1.404509 0.001158 0.006178
v -1.404509 0.001158 0.006178
vt 0.000000 0.700000
vt 0.050000 0.700000
vt 0.100000 0.700000
vt 0.150000 0.700000
vt 0.200000 0.700000
vt 0.250000 0.700000
vt 0.300000 0.700000
vt 0.350000 0.700000
vt 0.400000 0.700000
vt 0.450000 0.700000
vt 0.950000 0.700000
vt 1.000000 0.700000
vt 0.000000 0.650000
vt 0.050000 0.650000
vt 0.100000 0.650000
vt 0.150000 0.650000
vt 0.200000 0.650000
vt 0.250000 0.650000
vt 0.300000 0.650000
vt 0.350000 0.650000
vt 0.400000 0.650000
vt 0.450000 0.650000
vt 0.950000 0.650000
vt 1.000000 0.650000
vt 0.000000 0.600000
vt 0.050000 0.600000
vt 0.100000 0.600000
vt 0.150000 0.600000
vt 0.200000 0.600000
vt 0.250000 0.600000
vt 0.300000 0.600000
vt 0.350000 0.600000
vt 0.400000 0.600000
vt 0.450000 0.600000
vt 0.950000 0.600000
vt 1.000000 0.600000
vn -0.367286 0.891007 0.266849
vn -0.431771 0.891007 0.140290
vn -0.574571 0.796879 0.186689
vn -0.488759 0.796879 0.355104
vn -0.266849 0.891007 0.367286
vn -0.355104 0.796879 0.488759
vn -0.140291 0.891007 0.431771
vn -0.186689 0.796879 0.574571
vn 0.000000 0.891006 0.453991
vn 0.000000 0.796879 0.604139
vn 0.140291 0.891006 0.431771
vn 0.186689 0.796879 0.574570
vn 0.266849 0.891007 0.367286
vn 0.355104 0.796879 0.488759
vn 0.367286 0.891007 0.266849
vn 0.488759 0.796879 0.355104
vn 0.431771 0.891006 0.140291
vn 0.574571 0.796879 0.186689
vn 0.452822 0.888712 0.071720
vn 0.601392 0.793256 0.095251
vn -0.452822 0.888712 0.071719
vn -0.601393 0.793256 0.095250
vn -0.672499 0.707107 0.218508
vn -0.572061 0.707107 0.415627
vn -0.415627 0.707107 0.572061
vn -0.218508 0.707107 0.672498
vn -0.000000 0.707107 0.707106
vn 0.218508 0.707107 0.672498
vn 0.415627 0.707107 0.572061
vn 0.572062 0.707107 0.415627
vn 0.672498 0.707107 0.218508
vn 0.702712 0.702715 0.111299
vn -0.702714 0.702714 0.111298
s 1
g WaveEmissionMesh
f 2/2/1 1/1/2 12/13/3 13/14/4
f 3/3/5 2/2/1 13/14/4 14/15/6
f 4/4/7 3/3/5 14/15/6 15/16/8
f 5/5/9 4/4/7 15/16/8 16/17/10
f 6/6/11 5/5/9 16/17/10 17/18/12
f 7/7/13 6/6/11 17/18/12 18/19/14
f 8/8/15 7/7/13 18/19/14 19/20/16
f 9/9/17 8/8/15 19/20/16 20/21/18
f 10/10/19 9/9/17 20/21/18 21/22/20
f 1/12/2 11/11/21 22/23/22 12/24/3
f 13/14/4 12/13/3 23/25/23 24/26/24
f 14/15/6 13/14/4 24/26/24 25/27/25
f 15/16/8 14/15/6 25/27/25 26/28/26
f 16/17/10 15/16/8 26/28/26 27/29/27
f 17/18/12 16/17/10 27/29/27 28/30/28
f 18/19/14 17/18/12 28/30/28 29/31/29
f 19/20/16 18/19/14 29/31/29 30/32/30
f 20/21/18 19/20/16 30/32/30 31/33/31
f 21/22/20 20/21/18 31/33/31 32/34/32
f 12/24/3 22/23/22 33/35/33 23/36/23
