# OBJ written from /Users/Kaa/ProjectExposure/Assets/Assets/Level/LowPoly_sphere.obj
# Units	meters

o Sphere
v -0.0608558 -0.497125 -0.0718919
v -0.157807 -0.46459 0.131622
v 0.131622 -0.46459 0.157807
v 0.157807 -0.46459 -0.131622
v -0.243996 -0.42815 -0.152684
v 0.0512332 -0.360469 0.365144
v 0.365144 -0.360469 -0.0512332
v 0.110681 -0.352674 -0.363577
v -0.161388 -0.299038 -0.375742
v -0.333646 -0.324705 0.216972
v 0.277095 -0.305511 0.298434
v -0.341009 -0.179875 -0.336984
v -0.502898 -0.126683 0.000594926
v -0.223503 -0.125901 0.450547
v 0.460793 -0.16096 0.17208
v 0.417335 -0.192425 -0.223266
v -0.0547845 -0.0545977 -0.501838
v -0.435187 -0.0660016 0.258224
v 0.00603466 -0.0660015 0.505995
v 0.204987 0.0118348 0.47632
v 0.406581 0.0308663 -0.312468
v 0.203474 -0.0545978 -0.461997
v -0.297063 0.0779204 -0.404476
v -0.418589 0.148271 -0.263162
v 0.42469 0.0809876 0.270642
v 0.50295 0.0942289 0.00117432
v 0.146825 0.190485 -0.451574
v -0.0953685 0.284333 -0.41619
v -0.475421 0.207347 0.0495215
v -0.256651 0.29774 0.339828
v -0.0603666 0.205139 0.460014
v 0.165323 0.331848 0.356967
v 0.365032 0.317296 0.149812
v 0.379192 0.318636 -0.14712
v -0.274108 0.370323 -0.218484
v -0.27236 0.419284 0.0955782
v 0.0534067 0.419284 -0.28366
v -0.16655 0.476513 -0.0678116
v -0.0103685 0.494748 0.127848
v 0.16655 0.476513 0.0678116
v 0.110012 0.488168 -0.12063
vn -0.274486 -0.924427 0.264749
vn -0.0638603 -0.984417 -0.163842
vn 0.256074 -0.93343 0.251265
vn 0.30087 -0.927538 -0.221697
vn 0.221995 -0.695511 -0.683361
vn -0.509055 -0.812937 -0.282837
vn 0.0315593 -0.658644 0.751792
vn 0.676668 -0.732397 -0.0755933
vn -0.292721 -0.579886 -0.760294
vn -0.636411 -0.647202 0.419655
vn 0.565779 -0.605413 0.559794
vn -0.683952 -0.314899 -0.658064
vn -0.957881 -0.280118 -0.0632255
vn -0.446453 -0.183408 0.875809
vn 0.898295 -0.295225 0.325435
vn 0.872397 -0.337978 -0.353121
vn -0.134936 -0.10838 -0.984909
vn -0.846904 -0.0616996 0.528154
vn -0.00115183 -0.142996 0.989723
vn 0.445655 -0.0462915 0.894007
vn 0.786746 0.117888 -0.605915
vn 0.390555 -0.0981394 -0.915333
vn -0.530811 0.130583 -0.83737
vn -0.81052 0.267012 -0.521308
vn 0.805956 0.220324 0.549447
vn 0.987185 0.158514 -0.0184186
vn -0.263465 0.503153 -0.823057
vn 0.329197 0.387326 -0.861167
vn -0.9022 0.41905 0.102137
vn -0.485079 0.562301 0.669713
vn -0.107135 0.330954 0.937545
vn 0.305005 0.669322 0.67748
vn 0.735995 0.614694 0.28366
vn 0.701453 0.614385 -0.361241
vn -0.607011 0.706004 -0.364823
vn -0.552302 0.82013 0.1495
vn 0.144567 0.795392 -0.588602
vn -0.272024 0.941664 -0.198171
vn -0.066789 0.956275 0.284742
vn 0.374715 0.897342 0.233164
vn 0.21595 0.960371 -0.17622
vt 0.400283 0.279826
vt 0.451217 0.200727
vt 0.59059 0.27913
vt 0.70807 0.197548
vt 0.754208 0.275923
vt 0.0726345 0.281585
vt 0.248228 0.241671
vt 0.240594 0.315122
vt 0.523891 0.351294
vt 0.726625 0.351519
vt 0.770841 0.192673
vt 0.872075 0.319357
vt 0.135154 0.363617
vt 0.3731 0.365073
vt 0.601426 0.377065
vt 0.170959 0.426098
vt 0.284798 0.449495
vt 0.440694 0.448298
vt 0.671158 0.436313
vt 0.792704 0.419637
vt 0.0470053 0.465562
vt 0.360911 0.468911
vt 0.506015 0.469046
vt 0.561515 0.496286
vt 0.827636 0.502314
vt 0.907143 0.46289
vt 1 0.442112
vt 0.141104 0.522682
vt 0.201749 0.547747
vt 0.644554 0.522122
vt 0.726157 0.525259
vt 0.0993574 0.626813
vt 0 0.594787
vt 0.302893 0.564947
vt 0.415702 0.601626
vt 0.486077 0.563161
vt 0.917645 0.579843
vt 0.562601 0.623196
vt 0.662558 0.611395
vt 0.767284 0.614046
vt 0.215115 0.646326
vt 0.345843 0.662986
vt 0.851379 0.699397
vt 0.945568 0.682921
vt 0.279868 0.714846
vt 0.143925 0.734282
vt 0.485325 0.72682
vt 0.649755 0.712386
vt 0.75098 0.722783
vt 0.194802 0.787158
vt 0.297457 0.807327
vt 0.639822 0.780947
usemtl Default
g Default
f 2/1/1 1/2/2 3/3/3
f 3/3/3 1/4/2 4/5/4
f 8/6/5 1/7/2 5/8/6
f 2/1/1 5/8/6 1/7/2
f 3/3/3 6/9/7 2/1/1
f 4/5/4 7/10/8 3/3/3
f 1/11/2 8/12/5 4/5/4
f 5/8/6 9/13/9 8/6/5
f 2/1/1 10/14/10 5/8/6
f 10/14/10 2/1/1 6/9/7
f 6/9/7 3/3/3 11/15/11
f 11/15/11 3/3/3 7/10/8
f 7/10/8 4/5/4 8/12/5
f 5/8/6 12/16/12 9/13/9
f 12/16/12 5/8/6 13/17/13
f 13/17/13 5/8/6 10/14/10
f 6/9/7 14/18/14 10/14/10
f 7/10/8 15/19/15 11/15/11
f 8/12/5 16/20/16 7/10/8
f 9/13/9 17/21/17 8/6/5
f 17/21/17 9/13/9 12/16/12
f 10/14/10 18/22/18 13/17/13
f 18/22/18 10/14/10 14/18/14
f 6/9/7 19/23/19 14/18/14
f 19/23/19 6/9/7 20/24/20
f 11/15/11 20/24/20 6/9/7
f 20/24/20 11/15/11 15/19/15
f 15/19/15 7/10/8 16/20/16
f 21/25/21 16/20/16 8/12/5 22/26/22
f 22/26/22 8/12/5 17/27/17
f 12/16/12 23/28/23 17/21/17
f 23/28/23 12/16/12 24/29/24
f 13/17/13 24/29/24 12/16/12
f 20/24/20 15/19/15 25/30/25
f 25/30/25 15/19/15 26/31/26
f 16/20/16 26/31/26 15/19/15
f 26/31/26 16/20/16 21/25/21
f 28/32/27 27/33/28 17/21/17
f 17/21/17 23/28/23 28/32/27
f 24/29/24 13/17/13 29/34/29
f 13/17/13 18/22/18 29/34/29
f 30/35/30 29/34/29 18/22/18
f 18/22/18 14/18/14 30/35/30
f 31/36/31 30/35/30 14/18/14
f 14/18/14 19/23/19 31/36/31
f 20/24/20 31/36/31 19/23/19
f 27/37/28 21/25/21 22/26/22
f 22/26/22 17/27/17 27/37/28
f 24/29/24 28/32/27 23/28/23
f 32/38/32 31/36/31 20/24/20
f 20/24/20 25/30/25 32/38/32
f 33/39/33 32/38/32 25/30/25
f 25/30/25 26/31/26 33/39/33
f 34/40/34 33/39/33 26/31/26
f 26/31/26 21/25/21 34/40/34
f 21/25/21 27/37/28 34/40/34
f 28/32/27 24/29/24 35/41/35
f 24/29/24 29/34/29 35/41/35
f 36/42/36 35/41/35 29/34/29
f 30/35/30 36/42/36 29/34/29
f 32/38/32 30/35/30 31/36/31
f 37/43/37 34/40/34 27/37/28
f 27/37/28 28/44/27 37/43/37
f 28/32/27 35/41/35 38/45/38 37/46/37
f 35/41/35 36/42/36 38/45/38
f 39/47/39 36/42/36 30/35/30
f 30/35/30 32/38/32 39/47/39
f 40/48/40 39/47/39 32/38/32
f 32/38/32 33/39/33 40/48/40
f 33/39/33 34/40/34 41/49/41 40/48/40
f 34/40/34 37/43/37 41/49/41
f 37/46/37 38/45/38 41/50/41
f 39/47/39 38/45/38 36/42/36
f 41/50/41 38/45/38 39/51/39
f 40/48/40 41/49/41 39/52/39
