# This file uses centimeters as units for non-parametric coordinates.

mtllib house1.mtl
g default
v 0.500000 0.000000 0.000000
v -0.500000 0.000000 0.000000
v -0.500000 1.268817 0.465974
v -0.470070 1.252194 0.500000
v -0.470070 1.304113 0.479695
v 0.470070 1.304113 0.479695
v 0.470070 1.252194 0.500000
v 0.500000 1.268817 0.465974
v -0.470070 1.304113 -0.479695
v -0.470070 1.252194 -0.500000
v -0.500000 1.268817 -0.465974
v 0.500000 1.268817 -0.465974
v 0.470070 1.252194 -0.500000
v 0.470070 1.304113 -0.479695
v -0.500000 0.000000 0.465974
v -0.465974 0.000000 0.500000
v 0.500000 0.000000 0.465974
v 0.465974 0.000000 0.500000
v -0.465255 1.798048 0.023572
v -0.465255 1.798048 -0.023572
v -0.500000 1.773421 0.000000
v 0.465255 1.798048 -0.023572
v 0.465255 1.798048 0.023572
v 0.500000 1.773421 0.000000
v -0.500000 0.000000 -0.465974
v -0.465974 0.000000 -0.500000
v 0.500000 0.000000 -0.465974
v 0.465974 0.000000 -0.500000
v -0.083072 1.997546 -0.196020
v -0.083072 2.003267 -0.201742
v -0.088794 1.997546 -0.201742
v 0.088794 1.997546 -0.201742
v 0.083072 2.003267 -0.201742
v 0.083072 1.997546 -0.196020
v -0.088794 1.997546 -0.367885
v -0.083072 2.003267 -0.367885
v -0.083072 1.997546 -0.373607
v 0.083072 1.997546 -0.373607
v 0.083072 2.003267 -0.367885
v 0.088794 1.997546 -0.367885
v -0.071877 1.393280 -0.218658
v -0.066155 1.393280 -0.212936
v -0.066155 1.872282 -0.212936
v -0.071877 1.872282 -0.218658
v 0.071877 1.393280 -0.218658
v 0.066155 1.393280 -0.212936
v 0.066155 1.872282 -0.212936
v 0.071877 1.872282 -0.218658
v -0.083072 1.888818 -0.373607
v -0.088794 1.888818 -0.367885
v 0.088794 1.888818 -0.367885
v 0.083072 1.888818 -0.373607
v -0.083072 1.888818 -0.196020
v -0.088794 1.888818 -0.201742
v 0.088794 1.888818 -0.201742
v 0.083072 1.888818 -0.196020
v 0.071877 1.872282 -0.350968
v 0.066155 1.872282 -0.356690
v -0.066155 1.872282 -0.356690
v -0.071877 1.872282 -0.350968
v 0.071877 1.393280 -0.350968
v 0.066155 1.393280 -0.356690
v -0.066155 1.393280 -0.356690
v -0.071877 1.393280 -0.350968
vt 0.625000 0.875000
vt 0.625000 0.991494
vt 0.616494 1.000000
vt 0.383506 1.000000
vt 0.375000 0.991494
vt 0.625000 0.758506
vt 0.375000 0.875000
vt 0.375000 0.255881
vt 0.375000 0.372375
vt 0.366494 0.243124
vt 0.383506 0.000000
vt 0.382482 0.244164
vt 0.625000 0.255881
vt 0.625000 0.372375
vt 0.617517 0.244164
vt 0.633506 0.000000
vt 0.375000 0.494119
vt 0.382482 0.494924
vt 0.375000 0.502595
vt 0.382482 0.505836
vt 0.375000 0.758506
vt 0.617518 0.494924
vt 0.625000 0.377625
vt 0.625000 0.502595
vt 0.616494 0.750000
vt 0.383686 0.369107
vt 0.616314 0.369107
vt 0.616314 0.380893
vt 0.616494 0.000000
vt 0.383686 0.380893
vt 0.617518 0.505836
vt 0.383506 0.750000
vt 0.750000 0.243124
vt 0.866494 0.000000
vt 0.866494 0.243124
vt 0.133506 0.243124
vt 0.133506 0.000000
vt 0.250000 0.000000
vt 0.382482 0.255076
vt 0.617518 0.255076
vt 0.633506 0.243124
vt 0.750000 0.000000
vt 0.250000 0.243124
vt 0.366494 0.000000
vt 0.625000 0.494119
vt 0.375000 0.377625
vt 0.375000 0.759951
vt 0.384951 0.750000
vt 0.615049 0.750000
vt 0.625000 0.759951
vt 0.625000 0.990049
vt 0.615049 1.000000
vt 0.384951 1.000000
vt 0.375000 0.990049
vt 0.383055 0.248027
vt 0.366945 0.248027
vt 0.366945 0.210542
vt 0.383055 0.210542
vt 0.383055 0.258055
vt 0.616945 0.248027
vt 0.616945 0.258055
vt 0.375000 0.258055
vt 0.383055 0.491945
vt 0.375000 0.491945
vt 0.633055 0.248027
vt 0.616945 0.210542
vt 0.633055 0.210542
vt 0.625000 0.258055
vt 0.625000 0.491945
vt 0.616945 0.491945
vt 0.375000 0.501973
vt 0.383055 0.501973
vt 0.383055 0.539458
vt 0.375000 0.539458
vt 0.616945 0.501973
vt 0.625000 0.501973
vt 0.625000 0.539458
vt 0.616945 0.539458
vt 0.365049 0.000000
vt 0.384951 0.000000
vt 0.384951 0.204008
vt 0.365049 0.204008
vt 0.615049 0.000000
vt 0.634951 0.000000
vt 0.634951 0.204008
vt 0.615049 0.204008
vt 0.375000 0.541486
vt 0.384951 0.545992
vt 0.375000 0.545992
vt 0.875000 0.208514
vt 0.866945 0.210542
vt 0.865049 0.204008
vt 0.875000 0.204008
vt 0.865049 0.000000
vt 0.875000 0.000000
vt 0.866945 0.248027
vt 0.133055 0.210542
vt 0.133055 0.248027
vt 0.615049 0.545992
vt 0.134951 0.204008
vt 0.134951 0.000000
vn 0.000000 -1.000000 0.000000
vn 0.000000 -1.000000 0.000000
vn 0.000000 -1.000000 0.000000
vn 0.000000 -1.000000 0.000000
vn 0.000000 -1.000000 0.000000
vn 0.000000 -1.000000 0.000000
vn 0.000000 -1.000000 0.000000
vn 0.000000 -1.000000 0.000000
vn 0.000000 -1.000000 0.000000
vn 0.000000 -1.000000 0.000000
vn -0.748444 0.170374 0.640940
vn -0.724458 0.466093 0.507856
vn -0.725211 0.468999 0.504093
vn -0.725211 0.468999 0.504093
vn -0.728397 0.001367 0.685154
vn -0.728838 -0.001184 0.684685
vn -0.728838 -0.001184 0.684685
vn 0.000000 0.657380 0.753560
vn 0.000000 0.015665 0.999877
vn 0.000000 0.015665 0.999877
vn 0.000000 0.657380 0.753560
vn 0.724458 0.466093 0.507856
vn 0.748444 0.170374 0.640940
vn 0.725211 0.468999 0.504092
vn 0.725211 0.468999 0.504092
vn 0.728397 0.001367 0.685154
vn 0.728838 -0.001184 0.684685
vn 0.728838 -0.001184 0.684685
vn -0.724458 0.466093 -0.507856
vn -0.748444 0.170374 -0.640940
vn -0.725211 0.468999 -0.504092
vn -0.725211 0.468999 -0.504092
vn 0.000000 0.015665 -0.999877
vn 0.000000 0.657380 -0.753560
vn 0.000000 0.657380 -0.753560
vn 0.000000 0.015665 -0.999877
vn -0.728397 0.001367 -0.685154
vn -0.728838 -0.001184 -0.684685
vn -0.728838 -0.001184 -0.684685
vn 0.748444 0.170374 -0.640940
vn 0.724458 0.466093 -0.507856
vn 0.725211 0.468999 -0.504093
vn 0.725211 0.468999 -0.504093
vn 0.728397 0.001367 -0.685154
vn 0.728838 -0.001184 -0.684685
vn 0.728838 -0.001184 -0.684685
vn 0.000000 1.000000 0.000000
vn 0.000000 1.000000 0.000000
vn 0.000000 1.000000 0.000000
vn 0.000000 1.000000 0.000000
vn 0.000000 0.000000 1.000000
vn 0.000000 0.000000 1.000000
vn 0.000000 0.678427 -0.734668
vn 0.000000 0.678427 -0.734668
vn 0.000000 0.000000 -1.000000
vn 0.000000 0.000000 -1.000000
vn 1.000000 0.000000 0.000000
vn 1.000000 0.000000 0.000000
vn 1.000000 0.000000 0.000000
vn 1.000000 0.000000 0.000000
vn -1.000000 0.000000 0.000000
vn -1.000000 0.000000 0.000000
vn -1.000000 0.000000 0.000000
vn -1.000000 0.000000 0.000000
vn 0.000000 0.678427 0.734668
vn 0.000000 0.678427 0.734668
vn 1.000000 0.000000 0.000000
vn 1.000000 0.000000 0.000000
vn -1.000000 0.000000 0.000000
vn -1.000000 0.000000 0.000000
vn -0.578280 0.815838 0.000000
vn -0.578280 0.815838 0.000000
vn -0.578280 0.815838 0.000000
vn 0.578280 0.815838 0.000000
vn 0.578280 0.815838 0.000000
vn 0.578280 0.815838 0.000000
vn 0.000000 -1.000000 0.000000
vn 0.000000 -1.000000 0.000000
vn 0.000000 -1.000000 0.000000
vn 0.000000 -1.000000 0.000000
vn 0.000000 -1.000000 0.000000
vn 0.000000 -1.000000 0.000000
vn 0.000000 -1.000000 0.000000
vn 0.000000 -1.000000 0.000000
vn -0.707107 0.000000 0.707106
vn -0.707107 0.000000 0.707106
vn -0.707107 0.000000 0.707106
vn -0.707107 0.000000 0.707106
vn 0.000000 0.707115 0.707098
vn 0.000000 0.707115 0.707098
vn 0.000000 0.707115 0.707098
vn 0.000000 0.707115 0.707098
vn -0.707093 0.707121 0.000000
vn -0.707093 0.707121 0.000000
vn -0.707093 0.707121 0.000000
vn -0.707093 0.707121 0.000000
vn 0.707107 0.000000 0.707106
vn 0.707107 0.000000 0.707106
vn 0.707107 0.000000 0.707106
vn 0.707107 0.000000 0.707106
vn 0.707093 0.707121 0.000000
vn 0.707093 0.707121 0.000000
vn 0.707093 0.707121 0.000000
vn 0.707093 0.707121 0.000000
vn -0.707104 0.000000 -0.707109
vn -0.707104 0.000000 -0.707109
vn -0.707104 0.000000 -0.707109
vn -0.707104 0.000000 -0.707109
vn 0.000000 0.707114 -0.707099
vn 0.000000 0.707114 -0.707099
vn 0.000000 0.707114 -0.707099
vn 0.000000 0.707114 -0.707099
vn 0.707104 0.000000 -0.707109
vn 0.707104 0.000000 -0.707109
vn 0.707104 0.000000 -0.707109
vn 0.707104 0.000000 -0.707109
vn -0.707108 0.000000 0.707105
vn -0.707108 0.000000 0.707105
vn -0.707108 0.000000 0.707105
vn -0.707108 0.000000 0.707105
vn -0.689392 -0.724154 0.018440
vn -0.018439 -0.724154 0.689391
vn -0.040392 -0.734429 0.677483
vn -0.677482 -0.734429 0.040394
vn 0.707108 0.000000 0.707105
vn 0.707108 0.000000 0.707105
vn 0.707108 0.000000 0.707105
vn 0.707108 0.000000 0.707105
vn 0.018439 -0.724155 0.689391
vn 0.689392 -0.724154 0.018440
vn 0.677482 -0.734429 0.040392
vn 0.040392 -0.734430 0.677482
vn -0.677483 -0.734429 -0.040394
vn -0.040392 -0.734428 -0.677483
vn -0.018439 -0.724154 -0.689392
vn -0.689392 -0.724154 -0.018440
vn 0.040392 -0.734429 -0.677482
vn 0.677483 -0.734429 -0.040392
vn 0.689392 -0.724154 -0.018440
vn 0.018439 -0.724154 -0.689391
vn 0.707104 0.000000 -0.707109
vn 0.707104 0.000000 -0.707109
vn 0.707104 0.000000 -0.707109
vn 0.707104 0.000000 -0.707109
vn -0.707104 0.000000 -0.707109
vn -0.707104 0.000000 -0.707109
vn -0.707104 0.000000 -0.707109
vn -0.707104 0.000000 -0.707109
vn 0.000000 0.000000 1.000000
vn 0.000000 0.000000 1.000000
vn 0.000000 0.000000 1.000000
vn 0.000000 0.000000 1.000000
vn 0.000000 1.000000 0.000000
vn 0.000000 1.000000 0.000000
vn 0.000000 1.000000 0.000000
vn 0.000000 1.000000 0.000000
vn 0.000000 0.000000 -1.000000
vn 0.000000 0.000000 -1.000000
vn 0.000000 0.000000 -1.000000
vn 0.000000 0.000000 -1.000000
vn 1.000000 0.000000 0.000000
vn 1.000000 0.000000 0.000000
vn 1.000000 0.000000 0.000000
vn 1.000000 0.000000 0.000000
vn -1.000000 0.000000 0.000000
vn -1.000000 0.000000 0.000000
vn -1.000000 0.000000 0.000000
vn -1.000000 0.000000 0.000000
vn 0.000000 0.000000 1.000000
vn 0.000000 0.000000 1.000000
vn 0.000000 0.000000 1.000000
vn 0.000000 0.000000 1.000000
vn 1.000000 0.000000 0.000000
vn 1.000000 0.000000 0.000000
vn 1.000000 0.000000 0.000000
vn 1.000000 0.000000 0.000000
vn 0.000000 0.000000 -1.000000
vn 0.000000 0.000000 -1.000000
vn 0.000000 0.000000 -1.000000
vn 0.000000 0.000000 -1.000000
vn -1.000000 0.000000 0.000000
vn -1.000000 0.000000 0.000000
vn -1.000000 0.000000 0.000000
vn -1.000000 0.000000 0.000000
vn -0.577341 0.577360 0.577350
vn -0.577341 0.577360 0.577350
vn -0.577341 0.577360 0.577350
vn 0.577341 0.577360 0.577350
vn 0.577341 0.577360 0.577350
vn 0.577341 0.577360 0.577350
vn -0.577337 0.577361 -0.577353
vn -0.577337 0.577361 -0.577353
vn -0.577337 0.577361 -0.577353
vn 0.577337 0.577361 -0.577353
vn 0.577337 0.577361 -0.577353
vn 0.577337 0.577361 -0.577353
s 1
g housesmall
usemtl initialShadingGroup
f 2/7/1 1/1/2 17/2/3 18/3/4 16/4/5 15/5/6
f 25/21/7 26/32/8 28/25/9 27/6/10 1/1/2 2/7/1
s 2
f 3/8/11 5/39/12 19/26/13 21/9/14
f 4/12/15 3/10/11 15/44/16 16/11/17
s 3
f 5/39/18 4/12/19 7/15/20 6/40/21
s 4
f 6/40/22 8/13/23 24/14/24 23/27/25
f 8/41/23 7/15/26 18/29/27 17/16/28
s 5
f 9/18/29 11/17/30 21/46/31 20/30/32
s 6
f 10/20/33 9/18/34 14/22/35 13/31/36
s 5
f 11/19/30 10/20/37 26/32/38 25/21/39
s 7
f 12/45/40 14/22/41 22/28/42 24/23/43
f 13/31/44 12/24/40 27/6/45 28/25/46
s off
f 20/30/47 19/26/48 23/27/49 22/28/50
s 3
f 4/12/19 16/11/51 18/29/52 7/15/20
s 6
f 20/30/53 22/28/54 14/22/35 9/18/34
f 10/20/33 13/31/36 28/25/55 26/32/56
s 8
f 24/33/57 1/42/58 27/34/59 12/35/60
s 9
f 11/36/61 25/37/62 2/38/63 21/43/64
s 3
f 5/39/18 6/40/21 23/27/65 19/26/66
s 8
f 8/41/67 17/16/68 1/42/58 24/33/57
s 9
f 21/43/64 2/38/63 15/44/69 3/10/70
s 2
f 3/10/11 4/12/15 5/39/12
s 4
f 6/40/22 7/15/26 8/41/23
s 5
f 9/18/29 10/20/37 11/17/30
s 7
f 12/45/40 13/31/44 14/22/41
s off
f 19/26/71 20/30/72 21/46/73
f 22/28/74 23/27/75 24/23/76
f 64/47/77 63/48/78 62/49/79 61/50/80 45/51/81 46/52/82 42/53/83 41/54/84
f 29/55/85 31/56/86 54/57/87 53/58/88
f 30/59/89 29/55/90 34/60/91 33/61/92
f 31/62/93 30/59/94 36/63/95 35/64/96
f 32/65/97 34/60/98 56/66/99 55/67/100
f 33/61/101 32/68/102 40/69/103 39/70/104
f 35/71/105 37/72/106 49/73/107 50/74/108
f 37/72/109 36/63/110 39/70/111 38/75/112
f 38/75/113 40/76/114 51/77/115 52/78/116
f 41/79/117 42/80/118 43/81/119 44/82/120
s 10
f 44/82/121 43/81/122 53/58/123 54/57/124
s off
f 46/83/125 45/84/126 48/85/127 47/86/128
s 10
f 47/86/129 48/85/130 55/67/131 56/66/132
f 50/87/133 49/73/134 59/88/135 60/89/136
f 52/90/137 51/91/138 57/92/139 58/93/140
s off
f 58/93/141 57/92/142 61/94/143 62/95/144
f 60/89/145 59/88/146 63/48/147 64/47/148
f 53/58/149 56/66/150 34/60/151 29/55/152
f 30/59/153 33/61/154 39/70/155 36/63/156
f 37/72/157 38/75/158 52/78/159 49/73/160
f 55/67/161 51/91/162 40/96/163 32/65/164
f 50/97/165 54/57/166 31/56/167 35/98/168
s 10
f 43/81/122 47/86/129 56/66/132 53/58/123
f 48/85/130 57/92/139 51/91/138 55/67/131
f 49/73/134 52/78/137 58/99/140 59/88/135
f 60/100/136 44/82/121 54/57/124 50/97/133
s off
f 43/81/169 42/80/170 46/83/171 47/86/172
f 48/85/173 45/84/174 61/94/175 57/92/176
f 59/88/177 58/99/178 62/49/179 63/48/180
f 60/100/181 64/101/182 41/79/183 44/82/184
f 29/55/185 30/59/186 31/56/187
f 32/65/188 33/61/189 34/60/190
f 35/64/191 36/63/192 37/72/193
f 38/75/194 39/70/195 40/69/196
