# This file uses centimeters as units for non-parametric coordinates.

mtllib house3.mtl
g default
v -2.000000 0.000001 1.663976
v -1.663976 0.000001 2.000000
v 2.000000 0.000000 1.663976
v 1.663976 0.000000 2.000000
v 2.000000 0.000000 -1.663976
v 1.663976 0.000000 -2.000000
v -1.663976 0.000001 -2.000000
v -2.000000 0.000001 -1.663976
v -0.000000 19.455721 0.336024
v 0.336024 19.455721 0.000000
v 0.000000 19.455721 -0.336024
v -0.336024 19.455721 -0.000000
v -1.627129 6.646439 1.963153
v -1.663976 6.463454 2.000000
v -2.000000 6.463454 1.663976
v -1.963153 6.646439 1.627129
v -1.295471 7.323992 1.631495
v -1.332318 7.141008 1.668342
v -1.668342 7.141008 1.332318
v -1.631495 7.323992 1.295471
v 1.663976 6.463454 2.000000
v 1.627129 6.646439 1.963153
v 1.963153 6.646439 1.627129
v 2.000000 6.463454 1.663976
v 1.631495 7.323992 1.295471
v 1.668342 7.141008 1.332318
v 1.332318 7.141008 1.668342
v 1.295471 7.323992 1.631495
v -0.837097 17.421616 -1.173121
v -0.805329 17.610069 -1.141353
v -1.141353 17.610069 -0.805329
v -1.173121 17.421616 -0.837097
v -0.871823 14.399196 -1.207847
v -0.837097 14.584576 -1.173121
v -1.173121 14.584576 -0.837097
v -1.207847 14.399196 -0.871823
v -1.295471 13.467135 -1.631495
v -1.260745 13.652515 -1.596769
v -1.596769 13.652515 -1.260745
v -1.631495 13.467135 -1.295471
v 1.173121 17.421616 -0.837097
v 1.141353 17.610069 -0.805329
v 0.805329 17.610069 -1.141353
v 0.837097 17.421616 -1.173121
v 0.837097 14.584576 -1.173121
v 0.871823 14.399196 -1.207847
v 1.207847 14.399196 -0.871823
v 1.173121 14.584576 -0.837097
v 1.631495 13.467135 -1.295471
v 1.596769 13.652515 -1.260745
v 1.260745 13.652515 -1.596769
v 1.295471 13.467135 -1.631495
v -1.260745 13.652515 1.596769
v -1.295471 13.467135 1.631495
v -1.631495 13.467135 1.295471
v -1.596769 13.652515 1.260745
v 1.596769 13.652515 1.260745
v 1.631495 13.467135 1.295471
v 1.295471 13.467135 1.631495
v 1.260745 13.652515 1.596769
v 2.000000 6.463454 -1.663976
v 1.963153 6.646439 -1.627129
v 1.627129 6.646439 -1.963153
v 1.663976 6.463454 -2.000000
v 1.668342 7.141008 -1.332318
v 1.631495 7.323992 -1.295471
v 1.295471 7.323992 -1.631495
v 1.332318 7.141008 -1.668342
v -1.663976 6.463454 -2.000000
v -1.627129 6.646439 -1.963153
v -1.963153 6.646439 -1.627129
v -2.000000 6.463454 -1.663976
v -1.332318 7.141008 -1.668342
v -1.295471 7.323992 -1.631495
v -1.631495 7.323992 -1.295471
v -1.668342 7.141008 -1.332318
v 1.173121 14.584576 0.837097
v 1.207847 14.399196 0.871823
v 0.871823 14.399196 1.207847
v 0.837097 14.584576 1.173121
v -0.837097 14.584576 1.173121
v -0.871823 14.399196 1.207847
v -1.207847 14.399196 0.871823
v -1.173121 14.584576 0.837097
v 0.837097 17.421616 1.173121
v 0.805329 17.610069 1.141353
v 1.141353 17.610069 0.805329
v 1.173121 17.421616 0.837097
v -1.173121 17.421616 0.837097
v -1.141353 17.610069 0.805329
v -0.805329 17.610069 1.141353
v -0.837097 17.421616 1.173121
vt 0.603999 0.750000
vt 0.625000 0.771001
vt 0.625000 0.978999
vt 0.603999 1.000000
vt 0.396001 1.000000
vt 0.375000 0.978999
vt 0.146476 0.100322
vt 0.150745 0.104861
vt 0.849729 0.102897
vt 0.414111 0.500000
vt 0.585949 0.500989
vt 0.401457 0.473543
vt 0.164051 0.249011
vt 0.335889 0.250000
vt 0.375000 0.554340
vt 0.160805 0.197761
vt 0.403378 0.560311
vt 0.375000 0.556257
vt 0.155430 0.189689
vt 0.839195 0.247954
vt 0.835889 0.250000
vt 0.664051 0.249011
vt 0.625000 0.464196
vt 0.598543 0.473543
vt 0.625000 0.552239
vt 0.625000 0.554340
vt 0.839958 0.195208
vt 0.849255 0.188081
vt 0.846622 0.189689
vt 0.625000 0.556623
vt 0.625000 0.556810
vt 0.599255 0.560311
vt 0.853999 0.100000
vt 0.875000 0.098160
vt 0.875000 0.100000
vt 0.625000 0.645139
vt 0.396001 0.650000
vt 0.375000 0.652227
vt 0.375000 0.650000
vt 0.375000 0.646834
vt 0.339195 0.250000
vt 0.410805 0.250000
vt 0.396002 0.000000
vt 0.353999 0.098160
vt 0.396476 0.100322
vt 0.349729 0.102897
vt 0.646001 0.000000
vt 0.603998 0.098160
vt 0.646476 0.100322
vt 0.599729 0.102897
vt 0.403838 0.469803
vt 0.375000 0.502046
vt 0.410804 0.502046
vt 0.375000 0.552239
vt 0.375000 0.554485
vt 0.410042 0.554792
vt 0.375000 0.556111
vt 0.594803 0.471162
vt 0.625000 0.502046
vt 0.589195 0.552239
vt 0.625000 0.554527
vt 0.598493 0.559859
vt 0.400745 0.104861
vt 0.349255 0.188081
vt 0.650745 0.104861
vt 0.599255 0.188081
vt 0.875000 0.000000
vt 0.853999 0.098160
vt 0.625000 0.647470
vt 0.603524 0.649678
vt 0.625000 0.646857
vt 0.375000 0.771001
vt 0.396001 0.651840
vt 0.375000 0.647259
vt 0.400271 0.647103
vt 0.375000 0.645139
vt 0.375000 0.561919
vt 0.400745 0.561919
vt 0.599255 0.645139
vt 0.625000 0.561919
vt 0.651507 0.190141
vt 0.589958 0.195208
vt 0.401507 0.190141
vt 0.339958 0.195208
vt 0.660805 0.197761
vt 0.589196 0.247954
vt 0.410805 0.197761
vt 0.339195 0.247954
vt 0.656061 0.254744
vt 0.403838 0.280197
vt 0.414190 0.253385
vt 0.464195 0.375000
vt 0.603524 0.100322
vt 0.400271 0.102897
vt 0.585811 0.253385
vt 0.500000 0.339195
vt 0.599729 0.647103
vt 0.396476 0.649678
vt 0.853524 0.100322
vt 0.650271 0.102897
vt 0.353524 0.100322
vt 0.150271 0.102897
vt 0.396001 0.098160
vt 0.603999 0.000000
vt 0.646002 0.098160
vt 0.853998 0.000000
vt 0.603999 0.651840
vt 0.396001 0.750000
vt 0.146001 0.098160
vt 0.146001 0.000000
vt 0.353999 0.000000
vt 0.599255 0.561919
vt 0.400745 0.645139
vt 0.849255 0.104861
vt 0.650745 0.188081
vt 0.599255 0.104861
vt 0.400745 0.188081
vt 0.349255 0.104861
vt 0.150745 0.188081
vt 0.589957 0.554792
vt 0.401507 0.559859
vt 0.848493 0.190141
vt 0.660042 0.195208
vt 0.598493 0.190141
vt 0.410042 0.195208
vt 0.151507 0.190141
vt 0.348493 0.190141
vt 0.160042 0.195208
vt 0.589196 0.502046
vt 0.410804 0.552239
vt 0.839195 0.197761
vt 0.660805 0.247954
vt 0.589196 0.197761
vt 0.410805 0.247954
vt 0.339196 0.197761
vt 0.160805 0.247954
vt 0.621615 0.460811
vt 0.535805 0.375000
vt 0.621615 0.289189
vt 0.414189 0.496615
vt 0.500000 0.410805
vt 0.585811 0.496615
vt 0.378385 0.289190
vt 0.378385 0.460810
vn -0.000000 -1.000000 0.000000
vn -0.000000 -1.000000 0.000000
vn -0.000000 -1.000000 0.000000
vn -0.000000 -1.000000 0.000000
vn -0.000000 -1.000000 0.000000
vn -0.000000 -1.000000 0.000000
vn -0.000000 -1.000000 0.000000
vn -0.000000 -1.000000 0.000000
vn 0.000000 1.000000 0.000000
vn 0.000000 1.000000 0.000000
vn 0.000000 1.000000 0.000000
vn 0.000000 1.000000 0.000000
vn -0.111817 0.432737 0.894559
vn 0.000000 0.004262 0.999991
vn 0.000000 0.004262 0.999991
vn 0.111817 0.432737 0.894559
vn -0.707085 0.007840 0.707085
vn -0.894559 0.432737 0.111817
vn -0.707085 0.007840 0.707085
vn -0.999991 0.004262 0.000000
vn -0.894559 0.432737 -0.111817
vn -0.999991 0.004262 0.000000
vn 0.000000 0.007201 0.999974
vn -0.073705 0.496371 0.864976
vn 0.073705 0.496371 0.864976
vn 0.000000 0.007201 0.999974
vn -0.707083 0.008237 0.707083
vn -0.707083 0.008237 0.707083
vn -0.864976 0.496371 0.073705
vn -0.999974 0.007201 0.000000
vn -0.999974 0.007201 0.000000
vn -0.864976 0.496371 -0.073705
vn 0.707085 0.007840 0.707085
vn 0.707085 0.007840 0.707085
vn 0.894559 0.432737 0.111817
vn 0.999991 0.004262 0.000000
vn 0.999991 0.004262 0.000000
vn 0.894559 0.432737 -0.111817
vn 0.999974 0.007201 0.000000
vn 0.864976 0.496371 0.073705
vn 0.864976 0.496371 -0.073705
vn 0.999974 0.007201 0.000000
vn 0.707083 0.008237 0.707083
vn 0.707083 0.008237 0.707083
vn 0.000000 0.008383 -0.999965
vn 0.000000 0.339062 -0.940764
vn 0.000000 0.339062 -0.940764
vn 0.000000 0.008383 -0.999965
vn -0.611141 0.503006 -0.611140
vn -0.707029 0.014848 -0.707029
vn -0.707029 0.014848 -0.707029
vn -0.611141 0.503006 -0.611140
vn -0.940764 0.339061 0.000000
vn -0.999965 0.008384 0.000000
vn -0.999965 0.008384 0.000000
vn -0.940764 0.339061 0.000000
vn -0.098588 0.469241 -0.877549
vn 0.000000 0.014039 -0.999901
vn 0.000000 0.014039 -0.999901
vn 0.098588 0.469241 -0.877550
vn -0.707013 0.016247 -0.707013
vn -0.877549 0.469241 -0.098588
vn -0.707013 0.016247 -0.707013
vn -0.999901 0.014039 0.000000
vn -0.877549 0.469241 0.098588
vn -0.999901 0.014039 0.000000
vn 0.000000 0.004279 -0.999991
vn -0.150902 0.429764 -0.890242
vn 0.150902 0.429764 -0.890242
vn 0.000000 0.004279 -0.999991
vn -0.707086 0.007760 -0.707085
vn -0.707086 0.007760 -0.707085
vn -0.890242 0.429765 -0.150902
vn -0.999991 0.004279 0.000000
vn -0.999991 0.004279 0.000000
vn -0.890242 0.429765 0.150902
vn 0.999965 0.008384 0.000000
vn 0.940764 0.339061 0.000000
vn 0.940764 0.339061 0.000000
vn 0.999965 0.008384 0.000000
vn 0.611140 0.503006 -0.611140
vn 0.707029 0.014848 -0.707029
vn 0.707029 0.014848 -0.707029
vn 0.611140 0.503006 -0.611140
vn 0.707013 0.016247 -0.707013
vn 0.707013 0.016247 -0.707013
vn 0.877549 0.469241 -0.098588
vn 0.999901 0.014039 0.000000
vn 0.999901 0.014039 0.000000
vn 0.877549 0.469241 0.098588
vn 0.999991 0.004279 0.000000
vn 0.890242 0.429765 -0.150903
vn 0.890242 0.429765 0.150902
vn 0.999991 0.004279 0.000000
vn 0.707086 0.007760 -0.707085
vn 0.707086 0.007760 -0.707085
vn -0.150902 0.429764 0.890242
vn 0.000000 0.004279 0.999991
vn 0.000000 0.004279 0.999991
vn 0.150902 0.429764 0.890242
vn -0.707086 0.007760 0.707085
vn -0.707086 0.007760 0.707085
vn 0.707086 0.007760 0.707085
vn 0.707086 0.007760 0.707085
vn 0.707085 0.007840 -0.707085
vn 0.707085 0.007840 -0.707085
vn 0.111817 0.432737 -0.894559
vn 0.000000 0.004262 -0.999991
vn 0.000000 0.004262 -0.999991
vn -0.111817 0.432737 -0.894559
vn 0.707083 0.008237 -0.707083
vn 0.073705 0.496371 -0.864976
vn 0.707083 0.008237 -0.707083
vn 0.000000 0.007201 -0.999974
vn -0.073705 0.496371 -0.864976
vn 0.000000 0.007201 -0.999974
vn -0.707085 0.007840 -0.707085
vn -0.707085 0.007840 -0.707085
vn -0.707083 0.008237 -0.707083
vn -0.707083 0.008237 -0.707083
vn 0.707013 0.016247 0.707013
vn 0.707013 0.016247 0.707013
vn 0.098588 0.469241 0.877550
vn 0.000000 0.014039 0.999901
vn 0.000000 0.014039 0.999901
vn -0.098588 0.469241 0.877550
vn -0.707013 0.016247 0.707013
vn -0.707013 0.016247 0.707013
vn 0.000000 0.008383 0.999965
vn 0.000000 0.339062 0.940764
vn 0.000000 0.339062 0.940764
vn 0.000000 0.008383 0.999965
vn 0.611141 0.503006 0.611140
vn 0.707029 0.014848 0.707029
vn 0.707029 0.014848 0.707029
vn 0.611141 0.503006 0.611140
vn -0.611140 0.503006 0.611140
vn -0.707029 0.014848 0.707029
vn -0.707029 0.014848 0.707029
vn -0.611140 0.503006 0.611140
vn -0.707107 0.000000 0.707107
vn -0.707107 0.000000 0.707107
vn 0.707107 0.000000 0.707107
vn 0.707107 0.000000 0.707107
vn -0.601759 0.525141 -0.601758
vn -0.601759 0.525141 -0.601758
vn 0.601759 0.525141 -0.601759
vn 0.601759 0.525141 -0.601759
vn 0.707107 0.000000 -0.707107
vn 0.707107 0.000000 -0.707107
vn -0.707107 0.000000 -0.707107
vn -0.707107 0.000000 -0.707107
vn 0.601759 0.525141 0.601758
vn 0.601759 0.525141 0.601758
vn -0.601759 0.525141 0.601759
vn -0.601759 0.525141 0.601759
vn 0.000000 0.399925 0.916548
vn 0.000000 0.000000 1.000000
vn 0.000000 0.000000 1.000000
vn 1.000000 0.000000 0.000000
vn 1.000000 0.000000 0.000000
vn 0.000000 0.000000 -1.000000
vn 0.000000 0.000000 -1.000000
vn -1.000000 0.000000 0.000000
vn -1.000000 0.000000 0.000000
vn 0.916548 0.399925 0.000000
vn 0.000000 0.399925 -0.916548
vn -0.916548 0.399925 0.000000
s off
g housebig
usemtl initialShadingGroup
f 8/72/1 7/108/2 6/1/3 5/2/4 3/3/5 4/4/6 2/5/7 1/6/8
f 9/96/9 10/138/10 11/141/11 12/92/12
s 1
f 13/45/13 14/103/14 21/48/15 22/93/16
f 14/103/17 13/45/13 16/101/18 15/44/19
f 15/44/20 16/101/18 71/7/21 72/109/22
f 17/63/23 18/94/24 27/50/25 28/116/26
f 18/94/24 17/63/27 20/118/28 19/46/29
f 19/46/29 20/118/30 75/8/31 76/102/32
f 22/93/16 21/48/33 24/105/34 23/49/35
f 23/49/35 24/105/36 61/68/37 62/99/38
f 25/65/39 26/100/40 65/9/41 66/114/42
f 26/100/40 25/65/43 28/116/44 27/50/25
f 29/53/45 30/10/46 43/11/47 44/129/48
f 30/140/49 29/53/50 32/12/51 31/51/52
f 31/13/53 32/136/54 89/88/55 90/14/56
f 33/56/57 34/130/58 45/60/59 46/120/60
f 34/130/61 33/56/57 36/15/62 35/54/63
f 35/16/64 36/128/62 83/84/65 84/135/66
f 37/78/67 38/17/68 51/62/69 52/112/70
f 38/121/68 37/78/71 40/18/72 39/57/73
f 39/19/73 40/119/74 55/64/75 56/127/76
f 41/20/77 42/21/78 87/22/79 88/132/80
f 42/137/81 41/23/82 44/24/83 43/58/84
f 46/120/60 45/60/85 48/25/86 47/26/87
f 47/27/87 48/131/88 77/85/89 78/123/90
f 49/28/91 50/29/92 57/81/93 58/115/94
f 50/30/92 49/31/95 52/32/96 51/62/69
f 53/83/97 54/117/98 59/66/99 60/124/100
f 54/117/101 53/83/97 56/127/76 55/64/102
f 58/115/103 57/81/93 60/124/100 59/66/104
f 62/33/38 61/68/105 64/34/106 63/35/107
f 63/70/107 64/107/108 69/73/109 70/98/110
f 66/36/111 65/71/41 68/97/112 67/79/113
f 67/79/114 68/97/112 73/75/115 74/113/116
f 70/37/110 69/73/117 72/38/118 71/39/21
f 74/113/119 73/75/115 76/40/32 75/76/120
f 78/123/90 77/85/121 80/133/122 79/82/123
f 79/82/123 80/133/124 81/87/125 82/125/126
f 82/125/126 81/87/127 84/135/128 83/84/65
f 85/86/129 86/95/130 91/91/131 92/134/132
f 86/95/133 85/86/134 88/132/135 87/89/136
f 90/41/137 89/88/138 92/134/139 91/42/140
f 1/111/141 2/43/142 14/103/17 15/44/19
f 16/101/18 13/45/13 18/94/24 19/46/29
f 4/104/143 3/47/144 24/105/34 21/48/33
f 22/93/16 23/49/35 26/100/40 27/50/25
f 30/140/49 31/51/52 12/92/145 11/141/146
f 32/52/51 29/53/50 34/130/61 35/54/63
f 36/55/62 33/56/57 38/121/68 39/57/73
f 42/137/81 43/58/84 11/141/147 10/138/148
f 44/129/83 41/59/82 48/25/86 45/60/85
f 46/120/60 47/61/87 50/30/92 51/62/69
f 20/118/28 17/63/27 54/117/101 55/64/102
f 28/116/44 25/65/43 58/115/103 59/66/104
f 5/106/149 6/67/150 64/34/106 61/68/105
f 62/69/38 63/70/107 68/97/112 65/71/41
f 7/108/151 8/72/152 72/38/118 69/73/117
f 70/98/110 71/74/21 76/40/32 73/75/115
f 74/113/119 75/76/120 40/77/72 37/78/71
f 66/36/111 67/79/113 52/112/96 49/80/95
f 60/124/100 57/81/93 78/123/90 79/82/123
f 56/127/76 53/83/97 82/125/126 83/84/65
f 80/133/122 77/85/121 88/132/135 85/86/134
f 84/135/128 81/87/127 92/134/139 89/88/138
f 86/95/133 87/89/136 10/138/153 9/96/154
f 90/90/137 91/91/140 9/96/155 12/92/156
f 13/45/13 22/93/16 27/50/25 18/94/24
f 91/91/131 86/95/130 9/96/157
f 73/75/115 68/97/112 63/70/107 70/98/110
f 23/49/35 62/99/38 65/9/41 26/100/40
f 71/7/21 16/101/18 19/46/29 76/102/32
f 14/103/14 2/43/158 4/104/159 21/48/15
f 24/105/36 3/47/160 5/106/161 61/68/37
f 69/73/109 64/107/108 6/1/162 7/108/163
f 72/109/22 8/110/164 1/111/165 15/44/20
f 37/78/67 52/112/70 67/79/114 74/113/116
f 25/65/39 66/114/42 49/28/91 58/115/94
f 17/63/23 28/116/26 59/66/99 54/117/98
f 75/8/31 20/118/30 55/64/75 40/119/74
f 33/56/57 46/120/60 51/62/69 38/121/68
f 57/81/93 50/122/92 47/27/87 78/123/90
f 53/83/97 60/124/100 79/82/123 82/125/126
f 39/126/73 56/127/76 83/84/65 36/128/62
f 29/53/45 44/129/48 45/60/59 34/130/58
f 77/85/89 48/131/88 41/20/77 88/132/80
f 81/87/125 80/133/124 85/86/129 92/134/132
f 35/16/64 84/135/66 89/88/55 32/136/54
f 42/137/78 10/138/166 87/139/79
f 30/140/46 11/141/167 43/142/47
f 90/143/56 12/92/168 31/144/53
